<mxfile host="app.diagrams.net" modified="2023-05-20T12:30:08.929Z" agent="Mozilla/5.0 (Macintosh; Intel Mac OS X 10_15_7) AppleWebKit/605.1.15 (KHTML, like Gecko) Version/16.3 Safari/605.1.15" etag="U4wzGkPog0ffbFSuSS0V" version="21.3.2" type="github">
  <diagram name="Sivu-1" id="sKDdfknFH7Cz9x-xk31o">
    <mxGraphModel dx="872" dy="555" grid="1" gridSize="10" guides="1" tooltips="1" connect="1" arrows="1" fold="1" page="1" pageScale="1" pageWidth="827" pageHeight="1169" math="0" shadow="0">
      <root>
        <mxCell id="0" />
        <mxCell id="1" parent="0" />
        <mxCell id="ZEjh7lJmkJP0OWDX7xh0-1" value="External load balancer" style="rounded=1;whiteSpace=wrap;html=1;" parent="1" vertex="1">
          <mxGeometry x="340" y="190" width="120" height="60" as="geometry" />
        </mxCell>
        <mxCell id="ZEjh7lJmkJP0OWDX7xh0-2" value="" style="endArrow=classic;html=1;rounded=0;entryX=0.5;entryY=0;entryDx=0;entryDy=0;" parent="1" target="ZEjh7lJmkJP0OWDX7xh0-1" edge="1">
          <mxGeometry width="50" height="50" relative="1" as="geometry">
            <mxPoint x="400" y="110" as="sourcePoint" />
            <mxPoint x="440" y="260" as="targetPoint" />
          </mxGeometry>
        </mxCell>
        <mxCell id="ZEjh7lJmkJP0OWDX7xh0-4" style="edgeStyle=orthogonalEdgeStyle;rounded=0;orthogonalLoop=1;jettySize=auto;html=1;exitX=0.5;exitY=1;exitDx=0;exitDy=0;" parent="1" edge="1">
          <mxGeometry relative="1" as="geometry">
            <mxPoint x="425.5" y="681" as="sourcePoint" />
            <mxPoint x="425.5" y="681" as="targetPoint" />
          </mxGeometry>
        </mxCell>
        <mxCell id="ZEjh7lJmkJP0OWDX7xh0-7" value="" style="endArrow=classic;html=1;rounded=0;exitX=0.5;exitY=1;exitDx=0;exitDy=0;entryX=0.5;entryY=0;entryDx=0;entryDy=0;" parent="1" source="ZEjh7lJmkJP0OWDX7xh0-1" edge="1" target="ztrkCr3DdEQu6RkhGDGT-4">
          <mxGeometry width="50" height="50" relative="1" as="geometry">
            <mxPoint x="390" y="370" as="sourcePoint" />
            <mxPoint x="401.20000000000005" y="314.96000000000004" as="targetPoint" />
          </mxGeometry>
        </mxCell>
        <mxCell id="ZEjh7lJmkJP0OWDX7xh0-8" value="POD2&lt;br&gt;&lt;br&gt;&lt;br&gt;&lt;br&gt;" style="shape=cylinder3;whiteSpace=wrap;html=1;boundedLbl=1;backgroundOutline=1;size=15;" parent="1" vertex="1">
          <mxGeometry x="240" y="490" width="110" height="150" as="geometry" />
        </mxCell>
        <mxCell id="ZEjh7lJmkJP0OWDX7xh0-11" value="Clients" style="rounded=1;arcSize=10;whiteSpace=wrap;html=1;align=center;" parent="1" vertex="1">
          <mxGeometry x="350" y="70" width="100" height="40" as="geometry" />
        </mxCell>
        <mxCell id="ZEjh7lJmkJP0OWDX7xh0-13" value="HTTP traffic" style="text;html=1;align=center;verticalAlign=middle;resizable=0;points=[];autosize=1;strokeColor=none;fillColor=none;" parent="1" vertex="1">
          <mxGeometry x="400" y="138" width="90" height="30" as="geometry" />
        </mxCell>
        <mxCell id="ZEjh7lJmkJP0OWDX7xh0-15" value="Service 1.&amp;nbsp;&lt;br&gt;Home page" style="rounded=1;whiteSpace=wrap;html=1;" parent="1" vertex="1">
          <mxGeometry x="240" y="320" width="120" height="60" as="geometry" />
        </mxCell>
        <mxCell id="ZEjh7lJmkJP0OWDX7xh0-16" value="POD3&lt;br&gt;&lt;br&gt;&lt;br&gt;&lt;br&gt;&lt;br&gt;" style="shape=cylinder3;whiteSpace=wrap;html=1;boundedLbl=1;backgroundOutline=1;size=15;" parent="1" vertex="1">
          <mxGeometry x="400" y="490" width="110" height="152" as="geometry" />
        </mxCell>
        <mxCell id="ZEjh7lJmkJP0OWDX7xh0-18" value="Container:&lt;br&gt;FRONTEND" style="ellipse;whiteSpace=wrap;html=1;align=center;newEdgeStyle={&quot;edgeStyle&quot;:&quot;entityRelationEdgeStyle&quot;,&quot;startArrow&quot;:&quot;none&quot;,&quot;endArrow&quot;:&quot;none&quot;,&quot;segment&quot;:10,&quot;curved&quot;:1,&quot;sourcePerimeterSpacing&quot;:0,&quot;targetPerimeterSpacing&quot;:0};treeFolding=1;treeMoving=1;" parent="1" vertex="1">
          <mxGeometry x="245" y="585" width="100" height="45" as="geometry" />
        </mxCell>
        <mxCell id="ZEjh7lJmkJP0OWDX7xh0-19" value="Container:&lt;br&gt;BACKEND" style="ellipse;whiteSpace=wrap;html=1;align=center;newEdgeStyle={&quot;edgeStyle&quot;:&quot;entityRelationEdgeStyle&quot;,&quot;startArrow&quot;:&quot;none&quot;,&quot;endArrow&quot;:&quot;none&quot;,&quot;segment&quot;:10,&quot;curved&quot;:1,&quot;sourcePerimeterSpacing&quot;:0,&quot;targetPerimeterSpacing&quot;:0};treeFolding=1;treeMoving=1;" parent="1" vertex="1">
          <mxGeometry x="405" y="565" width="100" height="40" as="geometry" />
        </mxCell>
        <mxCell id="ZEjh7lJmkJP0OWDX7xh0-22" value="" style="whiteSpace=wrap;html=1;aspect=fixed;" parent="1" vertex="1">
          <mxGeometry x="70" y="410" width="80" height="80" as="geometry" />
        </mxCell>
        <mxCell id="ztrkCr3DdEQu6RkhGDGT-3" value="" style="endArrow=classic;html=1;rounded=0;exitX=0.5;exitY=1;exitDx=0;exitDy=0;entryX=0.5;entryY=0;entryDx=0;entryDy=0;entryPerimeter=0;" edge="1" parent="1" source="ZEjh7lJmkJP0OWDX7xh0-15" target="ZEjh7lJmkJP0OWDX7xh0-8">
          <mxGeometry width="50" height="50" relative="1" as="geometry">
            <mxPoint x="410" y="260" as="sourcePoint" />
            <mxPoint x="253" y="480" as="targetPoint" />
          </mxGeometry>
        </mxCell>
        <mxCell id="ztrkCr3DdEQu6RkhGDGT-4" value="Service 2.&lt;br&gt;Login" style="rounded=1;whiteSpace=wrap;html=1;" vertex="1" parent="1">
          <mxGeometry x="430" y="320" width="120" height="60" as="geometry" />
        </mxCell>
        <mxCell id="ztrkCr3DdEQu6RkhGDGT-5" value="Container:&lt;br&gt;Auth" style="ellipse;whiteSpace=wrap;html=1;align=center;newEdgeStyle={&quot;edgeStyle&quot;:&quot;entityRelationEdgeStyle&quot;,&quot;startArrow&quot;:&quot;none&quot;,&quot;endArrow&quot;:&quot;none&quot;,&quot;segment&quot;:10,&quot;curved&quot;:1,&quot;sourcePerimeterSpacing&quot;:0,&quot;targetPerimeterSpacing&quot;:0};treeFolding=1;treeMoving=1;" vertex="1" parent="1">
          <mxGeometry x="405" y="600" width="100" height="40" as="geometry" />
        </mxCell>
        <mxCell id="ztrkCr3DdEQu6RkhGDGT-6" value="" style="endArrow=classic;html=1;rounded=0;exitX=0.5;exitY=1;exitDx=0;exitDy=0;entryX=0.5;entryY=0;entryDx=0;entryDy=0;" edge="1" parent="1" source="ZEjh7lJmkJP0OWDX7xh0-1" target="ZEjh7lJmkJP0OWDX7xh0-15">
          <mxGeometry width="50" height="50" relative="1" as="geometry">
            <mxPoint x="410" y="260" as="sourcePoint" />
            <mxPoint x="447" y="330" as="targetPoint" />
          </mxGeometry>
        </mxCell>
      </root>
    </mxGraphModel>
  </diagram>
</mxfile>
